<?xml version="1.0" standalone="no"?>
<!DOCTYPE svg PUBLIC "-//W3C//DTD SVG 1.1//EN" "http://www.w3.org/Graphics/SVG/1.1/DTD/svg11.dtd">
<!--Generator: Xara Designer (www.xara.com), SVG filter version: 6.2.0.0-->
<svg stroke-width="0.501" stroke-linejoin="bevel" fill-rule="evenodd" xmlns:xlink="http://www.w3.org/1999/xlink" xmlns="http://www.w3.org/2000/svg" version="1.1" overflow="visible" width="22px" height="19px" viewBox="0 0 224.61 199.653">
 <defs>
	</defs>
 <g id="Document" fill="none" stroke="black" font-family="Times New Roman" font-size="16" transform="scale(1 -1)">
  <g id="Spread" transform="translate(0 -199.653)">
   <g id="Layer 1">
    <path d="M 31.195,153.702 C 31.195,160.604 36.771,166.18 43.673,166.18 L 180.935,166.18 C 187.837,166.18 193.412,160.604 193.412,153.702 C 193.412,146.8 187.837,141.224 180.935,141.224 L 43.673,141.224 C 36.771,141.224 31.195,146.8 31.195,153.702 Z M 81.108,116.267 L 180.935,116.267 C 187.837,116.267 193.412,110.691 193.412,103.789 C 193.412,96.886 187.837,91.31 180.935,91.31 L 81.108,91.31 C 74.206,91.31 68.63,96.886 68.63,103.789 C 68.63,110.691 74.206,116.267 81.108,116.267 Z M 106.065,53.875 C 106.065,60.777 111.641,66.354 118.543,66.354 L 180.935,66.354 C 187.837,66.354 193.412,60.777 193.412,53.875 C 193.412,46.973 187.837,41.397 180.935,41.397 L 118.543,41.397 C 111.641,41.397 106.065,46.973 106.065,53.875 Z" stroke="none" fill="#fff" stroke-width="0.39" fill-rule="evenodd" stroke-linejoin="miter" marker-start="none" marker-end="none" stroke-miterlimit="79.8403193612775"/>
   </g>
  </g>
 </g>
</svg>
